<?xml version="1.0" standalone="no"?>
<!DOCTYPE svg PUBLIC "-//W3C//DTD SVG 20010904//EN"
 "http://www.w3.org/TR/2001/REC-SVG-20010904/DTD/svg10.dtd">
<svg version="1.0" xmlns="http://www.w3.org/2000/svg"
 width="273.000000pt" height="261.000000pt" viewBox="0 0 273.000000 261.000000"
 preserveAspectRatio="xMidYMid meet">

<g transform="translate(0.000000,261.000000) scale(0.100000,-0.100000)"
fill="#fef0d8" stroke="none">
<path d="M1361 2393 c-1 -77 -25 -263 -50 -392 -21 -106 -77 -319 -91 -341 -6
-10 -31 0 -112 45 -177 101 -301 190 -518 372 -42 36 -42 35 16 -32 68 -77
159 -198 221 -290 50 -74 183 -309 183 -322 0 -11 -212 -73 -330 -97 -76 -15
-257 -40 -385 -53 l-70 -7 108 -8 c191 -13 401 -54 615 -117 39 -12 72 -25 72
-28 0 -16 -109 -209 -174 -308 -71 -108 -216 -297 -249 -324 -9 -7 -17 -18
-17 -24 0 -5 21 10 48 34 121 114 314 251 493 354 63 35 117 61 121 57 15 -15
80 -272 104 -412 13 -79 27 -191 31 -248 7 -123 18 -115 27 21 11 169 62 428
117 595 l21 63 76 -42 c181 -99 354 -220 504 -351 46 -40 72 -59 58 -41 -14
17 -56 68 -93 114 -138 169 -352 518 -331 539 11 10 153 53 249 76 126 29 288
54 392 61 56 3 100 9 98 13 -2 4 -48 10 -102 13 -194 13 -637 111 -650 143 -5
13 75 163 145 274 50 78 166 235 227 305 72 84 78 98 14 40 -72 -68 -204 -169
-314 -242 -100 -67 -294 -178 -300 -171 -2 2 -18 53 -35 113 -41 141 -76 321
-90 465 -7 63 -15 138 -20 165 l-8 50 -1 -62z"/>
</g>
</svg>
