<svg xmlns="http://www.w3.org/2000/svg" width="273" height="261"><path d="M0 0 C2.52126395 2.52126395 2.31126618 3.53820451 2.4921875 7.0390625 C2.5550293 8.0820752 2.61787109 9.12508789 2.68261719 10.19970703 C2.74610352 11.33005371 2.80958984 12.46040039 2.875 13.625 C4.43444957 36.68894096 8.26841083 60.13064778 16 82 C43.19713778 71.99400802 67.27903692 50.69201115 88 31 C88.66 31.33 89.32 31.66 90 32 C89.29037109 32.67482422 89.29037109 32.67482422 88.56640625 33.36328125 C82.89351773 38.88135409 77.8921538 44.78961202 73 51 C72.51370117 51.6098877 72.02740234 52.21977539 71.52636719 52.84814453 C58.80089447 68.84826322 48.23976493 85.77713029 39 104 C66.20093894 113.33428447 94.29639165 117.86901543 123 119 C123.33 119.66 123.66 120.32 124 121 C122.92407593 121.05945801 122.92407593 121.05945801 121.82641602 121.12011719 C79.64328788 123.01296727 79.64328788 123.01296727 40 136 C49.18356324 153.35175064 58.96695032 169.47560926 71 185 C71.96679688 186.25876953 71.96679688 186.25876953 72.953125 187.54296875 C78.28341047 194.35750038 84.0968577 200.68450584 90 207 C89.67 207.66 89.34 208.32 89 209 C87.72769531 207.78376953 87.72769531 207.78376953 86.4296875 206.54296875 C68.4289671 189.48624234 48.6054794 175.1614109 27 163 C25.98808594 162.42894531 24.97617188 161.85789063 23.93359375 161.26953125 C21.96215039 160.16811454 19.98251052 159.08136938 18 158 C11.3317533 184.00243686 6.06898795 209.31459065 4.73364258 236.17382812 C4.66556396 237.41841797 4.59748535 238.66300781 4.52734375 239.9453125 C4.47312256 241.06437988 4.41890137 242.18344727 4.36303711 243.33642578 C4 246 4 246 2 248 C1.96559814 247.18772949 1.93119629 246.37545898 1.89575195 245.53857422 C0.58351739 216.50665608 -3.36825576 188.87451002 -12 161 C-35.44710289 161 -67.80474082 195.70967823 -84 211 C-84.66 210.67 -85.32 210.34 -86 210 C-85.52691406 209.55011719 -85.05382812 209.10023438 -84.56640625 208.63671875 C-78.89211899 203.11728534 -73.90269733 197.20790793 -69 191 C-68.19433594 189.98808594 -67.38867188 188.97617188 -66.55859375 187.93359375 C-58.09177111 177.19287198 -50.61088288 165.87729255 -43.625 154.125 C-43.22023438 153.44791992 -42.81546875 152.77083984 -42.3984375 152.07324219 C-39.5485478 147.20230571 -37.19894379 142.19517426 -35 137 C-35.60005859 136.88897949 -36.20011719 136.77795898 -36.81835938 136.66357422 C-42.20132478 135.63215142 -47.45669651 134.37141189 -52.7331543 132.89355469 C-75.49281292 126.57153886 -98.48583696 124.30900297 -122 123 C-122 122.67 -122 122.34 -122 122 C-120.94949463 121.90501221 -119.89898926 121.81002441 -118.81665039 121.7121582 C-90.7327893 119.14202529 -64.05324394 115.27812196 -37 107 C-38.53369059 101.69107103 -40.92862729 97.15870742 -43.625 92.375 C-44.07085449 91.57956787 -44.51670898 90.78413574 -44.97607422 89.96459961 C-48.68533867 83.41809878 -52.65992381 77.15066012 -57 71 C-57.59941406 70.13761719 -58.19882813 69.27523437 -58.81640625 68.38671875 C-67.38864508 56.30684149 -76.91367564 44.84214711 -87 34 C-84 34 -84 34 -82.34375 35.43359375 C-81.7353125 36.09488281 -81.126875 36.75617187 -80.5 37.4375 C-75.6918162 42.43061395 -70.41191851 46.68262681 -65 51 C-64.1853125 51.6703125 -63.370625 52.340625 -62.53125 53.03125 C-47.56364347 65.27747352 -31.11901189 75.09716671 -14 84 C-13.773125 82.741875 -13.54625 81.48375 -13.3125 80.1875 C-12.47286319 75.94167697 -11.42065779 71.79162347 -10.27368164 67.62182617 C-4.17324354 45.31631011 -1.8167147 22.97683643 0 0 Z " fill="#000000" transform="translate(136,11)"></path><path d="M0 0 C4.24822374 0.47202486 6.19989709 2.96655518 9 6 C8.67 6.66 8.34 7.32 8 8 C6.66372225 6.85760183 5.33104612 5.71098945 4 4.5625 C3.2575 3.92441406 2.515 3.28632813 1.75 2.62890625 C1.1725 2.09136719 0.595 1.55382812 0 1 C0 0.67 0 0.34 0 0 Z " fill="#090909" transform="translate(217,212)"></path></svg>