<?xml version="1.0" encoding="UTF-8"?>
<svg version="1.1" xmlns="http://www.w3.org/2000/svg" width="32" height="32">
<path d="M0 0 C4.52087924 2.14146912 7.21038813 4.88200153 10 9 C10.9874355 14.42448333 11.32361033 20.37839761 8.7890625 25.3984375 C5.47384797 29.38679203 2.23220456 31.72279813 -2.98828125 32.37109375 C-13.07097671 32.5725107 -13.07097671 32.5725107 -17.1875 29.75 C-20.6617238 26.35298117 -21.83408103 24.60131101 -22.3359375 19.7578125 C-22.45443165 8.73785629 -22.45443165 8.73785629 -20.3125 5.3125 C-14.21881963 -0.78118037 -8.28878231 -0.93953452 0 0 Z M-13 9 C-15.11889653 12.1783448 -15.54651796 14.19415089 -15.44140625 17.9921875 C-15.08133958 20.38171012 -15.08133958 20.38171012 -12.4375 23 C-8.51220265 25.28380937 -6.46495113 25.58971053 -2 25 C-1.01 24.34 -0.02 23.68 1 23 C1 22.34 1 21.68 1 21 C0.01 20.67 -0.98 20.34 -2 20 C-2.33 20.33 -2.66 20.66 -3 21 C-5.33297433 21.04092937 -7.66705225 21.04241723 -10 21 C-10.33 19.68 -10.66 18.36 -11 17 C-6.38 17 -1.76 17 3 17 C2.6409727 12.33583277 2.6409727 12.33583277 0.8125 8.125 C-4.28899876 4.95855249 -8.13949278 5.90694995 -13 9 Z " fill="#FCB81A" transform="translate(22,0)"/>
<path d="M0 0 C0.33 1.32 0.66 2.64 1 4 C-2.3 4 -5.6 4 -9 4 C-8.67 2.68 -8.34 1.36 -8 0 C-5.13822943 -1.43088528 -3.06624227 -0.59991697 0 0 Z " fill="#FAA51C" transform="translate(20,10)"/>
<path d="M0 0 C1.32 0.33 2.64 0.66 4 1 C4.33 2.32 4.66 3.64 5 5 C3.35 5 1.7 5 0 5 C0 3.35 0 1.7 0 0 Z " fill="#FECC19" transform="translate(16,9)"/>
</svg>
